<svg width="20" height="20" viewBox="0 0 20 20" fill="none" xmlns="http://www.w3.org/2000/svg">
<path fill-rule="evenodd" clip-rule="evenodd" d="M1.66663 5C1.66663 4.53976 2.03972 4.16667 2.49996 4.16667H17.5C17.9602 4.16667 18.3333 4.53976 18.3333 5C18.3333 5.46024 17.9602 5.83333 17.5 5.83333H2.49996C2.03972 5.83333 1.66663 5.46024 1.66663 5ZM1.66663 10C1.66663 9.53976 2.03972 9.16667 2.49996 9.16667H17.5C17.9602 9.16667 18.3333 9.53976 18.3333 10C18.3333 10.4602 17.9602 10.8333 17.5 10.8333H2.49996C2.03972 10.8333 1.66663 10.4602 1.66663 10ZM1.66663 15C1.66663 14.5398 2.03972 14.1667 2.49996 14.1667H17.5C17.9602 14.1667 18.3333 14.5398 18.3333 15C18.3333 15.4602 17.9602 15.8333 17.5 15.8333H2.49996C2.03972 15.8333 1.66663 15.4602 1.66663 15Z" fill="#5C33B9"/>
</svg>
