<svg width="32" height="32" viewBox="0 0 32 32" fill="none" xmlns="http://www.w3.org/2000/svg">
    <rect width="32" height="32" rx="8" fill="#FAFAFA"/>
    <path fill-rule="evenodd" clip-rule="evenodd" d="M10.4068 10.4107C10.7322 10.0853 11.2599 10.0853 11.5853 10.4107L15.9961 14.8215L20.4068 10.4107C20.7322 10.0853 21.2599 10.0853 21.5853 10.4107C21.9107 10.7362 21.9107 11.2638 21.5853 11.5893L17.1746 16L21.5853 20.4107C21.9107 20.7362 21.9107 21.2638 21.5853 21.5893C21.2599 21.9147 20.7322 21.9147 20.4068 21.5893L15.9961 17.1785L11.5853 21.5893C11.2599 21.9147 10.7322 21.9147 10.4068 21.5893C10.0814 21.2638 10.0814 20.7362 10.4068 20.4107L14.8175 16L10.4068 11.5893C10.0814 11.2638 10.0814 10.7362 10.4068 10.4107Z" fill="#5C33B9"/>
</svg>
